<?xml version="1.0" standalone="no"?>
<!DOCTYPE svg PUBLIC "-//W3C//DTD SVG 20010904//EN"
 "http://www.w3.org/TR/2001/REC-SVG-20010904/DTD/svg10.dtd">
<svg version="1.0" xmlns="http://www.w3.org/2000/svg"
 width="443.000000pt" height="425.000000pt" viewBox="0 0 443.000000 425.000000"
 preserveAspectRatio="xMidYMid meet">

<g transform="translate(0.000000,425.000000) scale(0.100000,-0.100000)"
fill="#000000" stroke="none">
<path d="M1670 4220 c-79 -10 -145 -27 -185 -48 -16 -9 -36 -15 -44 -13 -7 1
-10 -2 -6 -8 8 -14 42 -14 50 -1 3 6 16 10 29 10 12 0 26 4 32 9 5 4 25 14 44
20 30 10 37 9 47 -5 12 -16 13 -16 19 -1 4 13 19 17 53 17 33 0 42 -3 31 -10
-11 -7 -7 -10 18 -10 20 0 31 4 27 10 -3 6 -2 10 4 10 5 0 13 -5 17 -11 4 -8
9 -8 17 0 6 6 16 11 22 11 5 0 3 -5 -5 -10 -25 -16 1 -29 70 -33 69 -5 100
-14 100 -28 0 -14 -16 -11 -30 6 -9 11 -16 13 -24 5 -7 -7 -3 -16 12 -30 24
-22 39 -25 44 -9 2 7 8 6 16 -3 9 -12 2 -20 -38 -44 -52 -30 -67 -50 -27 -35
12 5 32 5 44 0 12 -4 25 -4 28 0 3 5 14 7 25 4 11 -3 34 0 51 7 28 12 31 17
26 46 -5 32 -5 33 24 27 26 -5 29 -3 29 20 0 26 35 45 44 23 3 -7 13 -2 26 13
18 20 24 22 43 13 12 -7 39 -10 59 -8 21 2 36 0 33 -4 -3 -5 0 -12 6 -15 6 -4
13 2 16 14 7 26 20 26 56 2 17 -11 38 -16 54 -13 19 3 24 1 18 -7 -4 -8 1 -14
13 -18 12 -3 18 -11 16 -18 -4 -9 5 -13 30 -12 19 0 37 -1 38 -4 2 -2 13 -22
25 -44 23 -42 47 -59 41 -30 -2 10 3 20 10 22 6 3 12 -2 12 -11 0 -9 7 -16 15
-16 9 0 18 -8 21 -17 31 -95 56 -126 70 -88 4 8 9 15 13 15 11 0 30 -51 24
-66 -6 -16 -23 -19 -23 -4 0 6 -7 10 -16 10 -9 0 -12 5 -8 12 4 7 3 8 -5 4 -6
-4 -21 2 -34 13 -50 47 -71 61 -89 61 -11 0 -17 4 -14 9 3 4 -11 13 -32 19
-65 18 -102 24 -102 15 0 -17 24 -33 47 -33 34 0 81 -26 88 -50 4 -14 12 -19
23 -16 10 3 32 -8 53 -27 35 -31 36 -35 34 -89 -2 -54 -1 -57 16 -47 11 5 25
19 32 29 6 11 15 20 19 20 12 0 9 -28 -4 -50 -14 -22 -2 -41 13 -20 8 11 12
12 16 3 2 -7 12 -13 20 -13 9 0 13 -6 9 -15 -3 -9 0 -15 9 -15 17 0 19 -12 5
-26 -12 -12 9 -64 27 -64 7 0 19 -13 27 -28 13 -26 13 -31 -2 -45 -15 -16 -14
-17 11 -17 25 0 33 -16 15 -30 -3 -3 4 -10 18 -17 14 -6 24 -7 24 -1 0 5 5 6
10 3 6 -3 10 -10 10 -14 0 -7 -8 -9 -51 -13 l-21 -2 21 -14 c11 -8 21 -19 21
-25 0 -6 7 -19 16 -29 14 -14 14 -20 4 -33 -10 -12 -16 -13 -26 -4 -17 14 -18
5 -4 -22 6 -10 15 -19 21 -19 6 0 18 -7 26 -16 13 -13 14 -17 3 -24 -7 -4 -20
-6 -29 -2 -11 3 -9 -2 7 -20 29 -32 28 -40 -4 -32 -24 6 -25 5 -15 -14 6 -12
19 -26 29 -31 16 -9 16 -10 0 -16 -21 -8 -24 -31 -5 -38 21 -7 0 -19 -22 -12
-12 3 -24 18 -27 33 -3 15 -17 62 -30 105 -13 42 -26 92 -29 110 -4 17 -12 41
-19 52 -7 11 -17 35 -20 52 -4 18 -18 48 -31 68 -14 19 -22 35 -19 35 8 0 -35
60 -70 98 -17 17 -36 32 -43 32 -6 0 -14 9 -18 19 -7 24 -86 64 -109 55 -9 -3
-16 -1 -16 5 0 13 -39 14 -59 2 -9 -6 1 -11 31 -15 33 -5 50 -15 71 -41 18
-22 23 -35 14 -38 -6 -2 0 -2 16 0 22 4 27 1 27 -15 0 -15 -5 -19 -20 -15 -29
8 -25 -16 4 -27 30 -11 41 -27 28 -43 -7 -8 -6 -22 2 -42 9 -21 10 -42 4 -69
-5 -22 -7 -45 -4 -52 3 -8 1 -16 -4 -19 -7 -4 -7 -13 0 -24 5 -10 7 -41 3 -69
-6 -58 2 -106 18 -96 7 4 7 -1 0 -15 -13 -24 -7 -41 15 -41 22 0 17 -20 -12
-46 -14 -13 -22 -29 -19 -34 6 -10 -23 -15 -55 -10 -8 1 -12 -1 -8 -6 4 -4 3
-13 -3 -21 -9 -10 -8 -13 2 -13 8 -1 -1 -7 -19 -15 -18 -8 -40 -21 -48 -30
-29 -29 -65 -30 -87 -4 -15 17 -18 19 -14 6 5 -14 2 -20 -13 -24 -13 -4 -20
-14 -20 -31 0 -14 -7 -34 -17 -44 -15 -17 -15 -19 0 -36 10 -10 17 -26 17 -36
0 -9 7 -30 15 -45 8 -16 16 -41 19 -56 3 -16 10 -33 16 -39 5 -5 10 -32 10
-58 0 -39 3 -48 18 -49 14 0 14 -2 -3 -9 -11 -5 -14 -9 -7 -9 7 -1 10 -6 7
-11 -3 -6 1 -13 9 -16 9 -3 22 -19 30 -35 13 -25 13 -34 1 -62 -13 -31 -56
-62 -69 -50 -19 19 -116 42 -162 38 -47 -5 -53 -3 -69 21 -14 22 -15 28 -4 35
7 4 10 11 7 15 -13 13 -68 -38 -104 -96 -20 -32 -43 -61 -51 -64 -8 -3 -12
-10 -8 -16 5 -8 -9 -28 -72 -97 -13 -13 -23 -28 -23 -32 0 -14 33 -23 40 -11
4 6 20 13 36 16 58 10 64 16 104 100 l40 85 26 -20 c18 -14 41 -21 71 -21 56
0 124 -27 103 -40 -14 -9 -7 -14 13 -11 4 0 7 -3 7 -9 0 -5 -8 -10 -19 -10
-11 0 -21 -9 -25 -22 -9 -37 -6 -44 9 -24 12 16 15 17 15 4 0 -9 -7 -18 -15
-22 -21 -8 -19 -36 3 -37 14 0 14 -2 -3 -9 -20 -9 -20 -9 0 -9 22 -1 45 -18
45 -34 0 -4 -5 -5 -10 -2 -22 14 -99 6 -138 -14 -55 -28 -68 -27 -81 9 -11 32
-42 52 -49 32 -2 -7 -8 -10 -13 -6 -5 3 -9 0 -9 -5 0 -6 -6 -11 -13 -11 -16 0
-47 -36 -47 -55 0 -8 -4 -15 -10 -15 -5 0 -10 -9 -10 -20 0 -11 -4 -20 -9 -20
-9 0 -27 -75 -22 -97 1 -7 -6 -13 -16 -13 -23 0 -46 -36 -38 -61 4 -13 2 -19
-9 -19 -10 0 -15 8 -13 23 1 16 -3 21 -16 19 -9 -2 -20 4 -23 12 -7 19 -24 11
-24 -10 0 -9 5 -12 12 -8 7 4 8 3 4 -4 -4 -7 -13 -12 -21 -12 -7 0 -16 -6 -18
-12 -3 -8 -6 -6 -6 5 -1 9 -12 22 -25 28 -14 7 -26 23 -30 40 -6 30 -26 41
-26 14 0 -17 -14 -19 -39 -6 -13 8 -17 20 -15 54 3 41 1 44 -19 41 -12 -2 -16
-2 -9 2 6 3 10 10 6 15 -3 5 2 12 10 15 23 9 20 27 -4 21 -13 -3 -21 1 -25 14
-4 10 -13 26 -21 34 -9 8 -11 15 -5 15 6 0 11 5 11 10 0 6 -11 10 -25 10 -29
0 -33 15 -7 29 9 6 12 11 5 11 -6 0 -13 10 -15 22 -2 17 -12 24 -33 28 -23 4
-30 11 -32 30 -6 104 -8 120 -19 120 -18 0 -26 28 -30 99 -3 45 0 67 8 73 7 4
8 8 2 8 -10 0 -10 74 0 108 3 10 0 50 -8 89 -14 77 -17 388 -3 411 5 7 4 12
-2 12 -14 0 -14 26 1 66 6 17 8 40 4 50 -7 17 -9 17 -21 -7 -8 -15 -21 -29
-30 -33 -20 -7 -17 -74 3 -85 11 -6 12 -13 3 -28 -5 -11 -8 -23 -6 -25 3 -3
-2 -22 -12 -44 -9 -21 -17 -41 -18 -44 -1 -13 -77 -80 -90 -80 -7 0 -17 -5
-20 -11 -4 -6 -13 -8 -21 -5 -16 6 -19 -10 -4 -19 16 -10 88 5 104 21 23 22
25 17 11 -28 -6 -23 -20 -47 -31 -53 -10 -5 -25 -16 -32 -23 -8 -7 -28 -16
-44 -19 -21 -4 -26 -8 -16 -14 23 -15 82 -10 121 11 35 19 37 19 37 2 0 -10 4
-22 10 -28 11 -11 -77 -84 -102 -84 -9 0 -21 -7 -29 -16 -11 -13 -9 -14 17 -8
16 3 44 15 62 26 34 21 43 11 16 -17 -9 -8 -13 -22 -10 -30 3 -8 0 -15 -5 -15
-7 0 -5 -10 4 -24 17 -26 13 -38 -9 -29 -8 3 -14 1 -14 -4 0 -22 -104 -21
-130 2 -11 10 -20 13 -20 7 0 -6 5 -12 11 -14 8 -3 6 -10 -5 -20 -26 -26 -19
-42 28 -63 37 -17 42 -22 32 -37 -14 -22 -26 -23 -26 -2 0 13 -3 14 -14 5 -17
-14 -46 -4 -70 26 -17 22 -20 23 -36 8 -11 -10 -41 -18 -77 -20 -74 -4 -71 -3
-49 -20 20 -15 12 -20 -23 -15 -13 1 -13 -1 -2 -14 8 -9 25 -16 39 -16 16 0
22 -4 17 -9 -14 -13 -83 -31 -87 -23 -2 4 -22 17 -45 29 -39 20 -41 20 -31 3
7 -10 21 -22 33 -25 12 -4 15 -8 8 -11 -7 -3 -21 -1 -31 5 -17 9 -19 8 -15 -9
3 -12 15 -27 26 -35 21 -15 21 -15 1 -15 -25 0 -69 44 -59 59 3 6 1 11 -4 11
-18 0 -12 -35 9 -60 11 -12 34 -25 51 -29 18 -4 34 -11 36 -18 4 -12 -42 -24
-54 -13 -4 5 -24 11 -43 15 l-35 7 19 -21 c16 -18 17 -21 3 -21 -18 0 -67 55
-67 76 0 20 -9 17 -31 -9 -14 -17 -18 -18 -19 -6 0 8 14 28 31 45 17 16 41 52
54 79 12 28 30 57 39 64 9 7 16 18 16 23 0 35 36 78 89 107 32 17 61 28 64 24
4 -3 10 3 14 13 9 23 39 49 75 64 25 11 26 13 13 43 -7 18 -10 38 -8 45 3 6 0
12 -6 12 -6 0 -11 -11 -11 -23 0 -26 -28 -57 -51 -57 -8 0 -22 -7 -32 -14 -18
-14 -18 -15 0 -25 17 -10 16 -10 -4 -11 -12 0 -23 -5 -25 -12 -5 -14 -116 -19
-124 -6 -9 14 -34 9 -34 -7 0 -8 3 -15 8 -16 29 -3 47 -10 61 -24 15 -15 15
-17 -1 -26 -10 -6 -18 -17 -18 -25 0 -8 -4 -12 -10 -9 -5 3 -10 1 -10 -5 0 -8
-7 -9 -17 -5 -10 4 -27 8 -39 9 -12 1 -33 16 -48 34 -28 33 -60 42 -69 20 -3
-8 -6 -7 -6 4 -1 9 4 20 9 23 6 3 10 18 10 33 0 31 25 72 43 72 7 0 23 9 37
20 l25 19 -37 15 c-21 9 -46 16 -56 16 -20 0 -50 45 -38 57 3 4 13 -2 21 -13
10 -15 22 -20 44 -16 17 2 31 8 31 13 0 5 5 9 12 9 9 0 9 -3 0 -12 -14 -14
-16 -48 -2 -48 8 0 40 61 40 76 0 3 -16 3 -36 0 -56 -6 -82 12 -78 53 4 29 2
32 -11 21 -12 -10 -15 -10 -15 4 0 9 7 16 15 16 19 0 19 7 1 25 -12 12 -15 9
-21 -23 -3 -20 -13 -46 -20 -58 -7 -12 -17 -53 -20 -92 -7 -62 -5 -75 15 -110
20 -35 21 -45 12 -69 -25 -61 -15 -245 18 -338 9 -27 18 -79 18 -115 1 -85 10
-136 34 -187 12 -25 17 -50 13 -62 -5 -16 -1 -23 18 -30 28 -11 38 -43 41
-136 2 -42 11 -76 29 -112 15 -29 27 -67 27 -84 0 -46 78 -119 126 -119 19 0
34 -5 34 -12 0 -23 -78 -85 -117 -93 -21 -3 -51 -15 -68 -25 -16 -10 -48 -22
-70 -25 -22 -4 -49 -15 -60 -25 -21 -17 -262 -120 -325 -138 -19 -6 -61 -15
-93 -21 -76 -13 -160 -52 -200 -92 -17 -18 -51 -41 -74 -51 l-43 -19 0 -460 0
-459 912 2 912 3 18 59 c10 33 25 108 32 167 8 60 17 113 21 119 5 9 6 114 2
304 -1 22 -3 33 -5 26 -3 -7 -19 29 -37 81 -44 129 -145 369 -212 505 -8 18
-16 55 -18 83 -2 29 -6 60 -9 69 -10 33 -17 78 -23 151 -6 73 -6 73 15 62 12
-7 22 -16 22 -20 0 -5 15 -18 33 -30 17 -11 41 -26 52 -33 11 -7 22 -15 25
-18 8 -8 119 -80 124 -80 2 0 35 -18 72 -40 38 -22 100 -52 139 -66 38 -15 94
-37 122 -50 29 -13 74 -29 99 -35 25 -7 48 -18 51 -26 7 -19 56 -43 87 -43 14
0 27 -4 30 -9 3 -5 36 -9 73 -9 88 0 91 -1 73 -12 -12 -8 -11 -10 8 -10 19 0
11 -11 -50 -69 -90 -84 -127 -118 -153 -140 -58 -49 -195 -203 -221 -251 -36
-64 -104 -220 -104 -238 0 -7 -4 -20 -10 -30 -22 -39 -55 -151 -94 -327 -9
-38 -16 -76 -16 -82 0 -10 253 -13 1230 -13 l1230 0 0 391 0 391 -37 35 c-21
19 -61 50 -89 69 -28 18 -59 43 -69 54 -10 11 -23 20 -28 20 -6 0 -42 20 -81
44 -39 24 -84 50 -101 58 -16 8 -43 22 -60 31 -16 8 -84 41 -150 74 -65 32
-131 67 -145 79 -14 11 -45 28 -70 38 -25 10 -52 24 -60 31 -8 7 -37 18 -65
24 -27 6 -86 21 -130 34 -63 19 -81 28 -83 45 -2 11 -12 22 -23 25 -28 8 -23
24 14 43 80 41 187 207 187 289 0 23 9 48 24 68 13 18 30 49 37 70 7 20 17 37
22 37 5 0 7 6 4 14 -3 8 0 34 7 58 14 44 11 104 -6 124 -5 7 -5 29 1 54 5 23
6 52 2 63 -5 12 -5 36 -1 54 5 19 4 36 -2 39 -5 3 -9 34 -8 67 2 81 -27 308
-47 372 -9 28 -33 84 -54 125 -20 41 -41 91 -45 110 -3 19 -17 48 -29 65 -27
35 -55 100 -55 125 0 10 -15 34 -34 54 -21 24 -36 52 -40 78 -4 22 -13 53 -21
69 -8 15 -15 42 -15 60 0 17 -9 48 -19 68 -10 20 -28 59 -40 87 -22 54 -79
149 -105 174 -8 8 -29 28 -46 43 -17 16 -37 43 -44 62 -14 33 -57 80 -154 168
-65 59 -85 68 -242 103 -215 49 -280 50 -371 2 -55 -28 -57 -29 -100 -14 -24
9 -57 16 -72 16 -15 0 -42 6 -60 14 -43 17 -176 26 -257 16z m1256 -357 c-6
-6 -36 9 -36 18 0 5 9 4 20 -3 10 -7 18 -14 16 -15z m27 -75 c22 -26 22 -38
-1 -38 -16 0 -62 49 -62 65 0 13 46 -7 63 -27z m37 -69 c0 -11 -4 -18 -10 -14
-5 3 -7 12 -3 20 7 21 13 19 13 -6z m-283 -55 c-9 -9 -28 6 -21 18 4 6 10 6
17 -1 6 -6 8 -13 4 -17z m330 -22 c-4 -19 -9 -37 -12 -40 -9 -10 -24 19 -18
35 3 7 0 19 -6 27 -14 17 -5 25 21 18 17 -4 19 -10 15 -40z m36 -78 c-4 -10
-9 -12 -15 -6 -12 12 -1 35 12 27 5 -3 6 -13 3 -21z m-18 -94 c-3 -5 -11 -10
-16 -10 -6 0 -7 5 -4 10 3 6 11 10 16 10 6 0 7 -4 4 -10z m75 -42 c0 -10 -4
-18 -10 -18 -5 0 -10 15 -10 33 0 24 3 28 10 17 5 -8 10 -23 10 -32z m12 -248
c-7 -5 -11 -25 -15 -65 -2 -16 3 -19 22 -17 15 2 21 0 16 -7 -3 -6 -10 -9 -15
-6 -5 3 -13 -3 -19 -12 -9 -16 -10 -16 -11 5 0 12 -4 22 -9 22 -20 0 -16 55 4
72 18 15 18 17 3 23 -10 4 -14 13 -11 22 5 13 9 11 24 -8 10 -13 15 -26 11
-29z m38 -40 c0 -11 -7 -20 -15 -20 -15 0 -21 21 -8 33 12 13 23 7 23 -13z
m20 -78 c0 -5 -9 -17 -20 -27 -11 -10 -22 -26 -26 -37 -4 -13 -11 -17 -25 -13
-14 5 -19 2 -19 -12 0 -26 16 -48 24 -34 4 6 5 15 2 20 -8 12 52 23 72 12 9
-4 22 -7 28 -4 25 9 8 -27 -18 -38 -16 -6 -37 -23 -48 -36 -23 -29 -51 -25
-43 6 4 15 1 21 -10 21 -25 0 -44 84 -25 108 6 6 7 12 2 13 -5 0 14 7 41 14
65 16 65 16 65 7z m7 -48 c-3 -3 -12 -4 -19 -1 -8 3 -5 6 6 6 11 1 17 -2 13
-5z m-474 -154 c-5 -19 -29 -29 -63 -28 -8 0 -24 -3 -35 -7 -16 -5 -15 -3 5
14 14 11 35 21 47 21 12 0 25 5 28 10 11 18 23 11 18 -10z m27 -10 c0 -5 -4
-10 -10 -10 -5 0 -10 5 -10 10 0 6 5 10 10 10 6 0 10 -4 10 -10z m444 -5 c4
-10 -8 -23 -34 -40 -22 -14 -40 -32 -40 -41 0 -11 -6 -14 -22 -9 -13 4 -18 3
-12 -2 8 -6 8 -16 2 -33 -10 -24 -11 -24 -18 -5 -16 39 -11 94 10 113 37 31
104 42 114 17z m-2504 -65 c0 -5 -2 -10 -4 -10 -3 0 -8 5 -11 10 -3 6 -1 10 4
10 6 0 11 -4 11 -10z m1986 -56 l29 -8 -30 -7 -30 -7 33 -1 c34 -1 40 -9 20
-29 -9 -9 -5 -12 21 -12 21 0 30 -4 25 -11 -4 -7 -27 -10 -62 -7 -46 4 -60 10
-83 36 -17 18 -26 38 -23 47 8 19 24 19 24 0 0 -8 8 -15 18 -15 12 0 14 2 4 8
-7 5 -10 16 -6 27 6 16 8 16 19 2 6 -9 24 -19 41 -23z m552 20 c26 -7 29 -22
5 -30 -63 -20 -115 -54 -83 -54 6 0 10 -5 10 -11 0 -8 -5 -8 -15 1 -9 7 -13
23 -11 36 3 16 0 24 -10 24 -28 0 -13 17 24 27 48 14 53 14 80 7z m69 -178 c4
-3 -17 -6 -46 -6 -35 0 -53 -4 -57 -14 -4 -12 -53 -36 -70 -36 -11 0 -1 20 19
41 19 21 30 24 85 22 35 -1 66 -4 69 -7z m-422 -6 c-3 -5 -10 -10 -16 -10 -5
0 -18 -9 -29 -20 -12 -12 -25 -18 -30 -15 -18 11 -10 25 23 39 39 17 60 20 52
6z m-2156 -55 c5 2 21 -7 35 -20 15 -14 33 -25 41 -25 8 0 16 -4 19 -9 7 -11
-25 -24 -33 -13 -3 4 -23 16 -43 25 -21 10 -39 22 -39 27 -1 6 -2 16 -3 23 -1
6 0 17 3 22 3 6 7 0 9 -13 2 -12 7 -20 11 -17z m2054 28 c-7 -2 -19 -2 -25 0
-7 3 -2 5 12 5 14 0 19 -2 13 -5z m-1458 -42 c3 -5 1 -12 -5 -16 -6 -4 -8 -11
-4 -16 4 -6 15 -4 29 5 21 14 23 14 28 -5 4 -15 2 -19 -9 -15 -8 3 -14 1 -14
-4 0 -6 -4 -10 -10 -10 -13 0 -50 41 -50 57 0 15 26 18 35 4z m85 -25 c0 -3
-4 -8 -10 -11 -5 -3 -10 -1 -10 4 0 6 5 11 10 11 6 0 10 -2 10 -4z m1320 -26
c-8 -5 -17 -7 -19 -4 -3 3 1 9 9 14 8 5 17 7 19 4 3 -3 -1 -9 -9 -14z m-1295
0 c-3 -5 -14 -10 -23 -10 -15 0 -15 2 -2 10 20 13 33 13 25 0z m1779 -16 c9
-23 8 -24 -19 -24 -14 0 -25 -5 -25 -11 0 -5 -5 -7 -11 -3 -7 4 -3 15 12 30
29 28 35 29 43 8z m-426 -84 c-4 -3 -3 -12 2 -20 15 -23 12 -37 -10 -43 -26
-7 -37 14 -46 84 l-6 54 33 -35 c19 -19 31 -37 27 -40z m-1483 -14 c34 -22 21
-39 -21 -27 -20 6 -38 5 -50 -2 -17 -10 -15 -12 20 -22 22 -6 42 -18 44 -26 3
-11 1 -11 -7 1 -7 9 -11 10 -11 3 0 -7 -20 -13 -51 -15 -42 -2 -53 -7 -60 -24
-7 -21 -5 -21 55 -17 49 4 64 2 75 -11 7 -9 24 -16 38 -16 14 0 21 -4 18 -10
-3 -5 -24 -10 -46 -10 -28 0 -39 -4 -39 -15 0 -9 -10 -15 -26 -15 -34 0 -84
-30 -84 -50 0 -9 -5 -21 -12 -28 -6 -6 -9 -14 -6 -18 4 -3 16 4 27 15 28 28
61 35 110 21 50 -13 46 -27 -8 -27 -21 0 -52 -6 -69 -14 -24 -10 -29 -17 -22
-33 8 -23 -4 -66 -19 -66 -15 0 -23 19 -27 59 -6 60 -11 94 -19 134 -5 25 -4
37 4 37 16 0 13 28 -4 37 -8 5 -19 23 -24 40 -11 39 12 91 49 111 34 17 130
11 165 -12z m1905 -36 c0 -5 -4 -10 -10 -10 -5 0 -10 5 -10 10 0 6 5 10 10 10
6 0 10 -4 10 -10z m-398 -35 c0 -5 -5 -11 -11 -13 -6 -2 -11 4 -11 13 0 9 5
15 11 13 6 -2 11 -8 11 -13z m-2016 -62 c-3 -19 -36 -32 -36 -14 0 8 25 28 37
31 1 0 0 -8 -1 -17z m131 1 c-3 -3 -12 -4 -19 -1 -8 3 -5 6 6 6 11 1 17 -2 13
-5z m125 -102 c-3 -32 1 -59 8 -67 9 -11 9 -15 1 -15 -6 0 -11 4 -11 10 0 5
-7 6 -17 3 -10 -4 -14 -2 -10 4 4 6 1 13 -7 16 -8 3 -17 -2 -21 -11 -3 -9 -1
-18 4 -20 6 -2 11 -8 11 -14 0 -5 -9 -7 -20 -3 -18 6 -18 4 -9 -24 6 -17 15
-31 21 -31 12 0 42 -29 35 -36 -10 -11 -59 21 -77 51 -22 35 -26 80 -9 90 5 4
8 12 6 18 -6 17 64 88 83 85 12 -3 14 -15 12 -56z m578 8 c0 -5 -5 -10 -11
-10 -5 0 -7 5 -4 10 3 6 8 10 11 10 2 0 4 -4 4 -10z m-554 -47 c-11 -11 -19 6
-11 24 8 17 8 17 12 0 3 -10 2 -21 -1 -24z m164 -78 c-7 -9 -15 -13 -17 -11
-7 7 7 26 19 26 6 0 6 -6 -2 -15z m-314 -34 c-16 -17 -15 -19 10 -35 14 -10
23 -20 20 -23 -3 -4 -1 -12 5 -19 8 -10 7 -18 -5 -29 -9 -9 -16 -19 -16 -23 0
-9 49 -32 68 -32 7 0 10 -5 7 -11 -10 -14 -63 -1 -86 22 -10 10 -26 19 -35 19
-13 0 -15 7 -10 30 3 18 2 29 -3 25 -6 -3 -9 8 -9 25 1 33 30 70 55 70 15 0
14 -2 -1 -19z m1308 12 c3 -4 14 -8 24 -10 9 -1 31 -5 49 -9 21 -4 39 -1 55
10 12 9 30 16 40 16 20 0 36 -22 20 -28 -25 -8 -10 -18 22 -14 18 2 37 -1 40
-6 4 -7 -12 -13 -41 -17 -57 -8 -103 -24 -103 -36 0 -5 5 -8 12 -6 20 4 34
-51 19 -74 -7 -12 -11 -22 -9 -24 2 -2 27 1 57 7 64 11 93 6 121 -24 25 -28
25 -34 -1 -41 -14 -4 -20 -11 -16 -21 8 -19 -20 -49 -36 -39 -7 4 -6 -1 2 -10
8 -10 11 -20 7 -24 -3 -3 -6 -1 -6 5 0 15 -21 15 -57 0 -15 -6 -35 -13 -43
-14 -8 -2 -28 -5 -44 -9 -19 -4 -34 -1 -46 10 -9 8 -25 13 -34 9 -9 -3 -16 -1
-16 4 0 6 -10 12 -22 14 -17 2 -22 9 -20 22 3 17 1 18 -12 7 -13 -11 -19 -9
-39 13 -13 14 -29 26 -35 26 -7 0 -9 11 -6 29 4 20 2 30 -10 34 -9 4 -16 2
-16 -4 0 -6 -4 -8 -8 -5 -7 4 -8 90 -2 106 1 3 2 13 1 23 -1 9 3 17 8 17 6 0
11 -5 11 -12 0 -14 28 15 54 55 18 26 62 38 80 20z m-1274 -23 c0 -5 -4 -10
-10 -10 -5 0 -10 5 -10 10 0 6 5 10 10 10 6 0 10 -4 10 -10z m235 -20 c-3 -5
-10 -10 -16 -10 -5 0 -9 5 -9 10 0 6 7 10 16 10 8 0 12 -4 9 -10z m65 -5 c-7
-9 -15 -13 -17 -11 -7 7 7 26 19 26 6 0 6 -6 -2 -15z m-40 -55 c-6 -11 -13
-20 -15 -20 -3 0 -5 9 -5 20 0 11 7 20 15 20 13 0 14 -4 5 -20z m-213 -36 c-3
-3 -12 -4 -19 -1 -8 3 -5 6 6 6 11 1 17 -2 13 -5z m210 -16 c-3 -8 -6 -5 -6 6
-1 11 2 17 5 13 3 -3 4 -12 1 -19z m843 -29 c0 -11 -4 -17 -10 -14 -5 3 -10
13 -10 21 0 8 5 14 10 14 6 0 10 -9 10 -21z m-93 -5 c-3 -3 -12 -4 -19 -1 -8
3 -5 6 6 6 11 1 17 -2 13 -5z m126 -204 c25 -11 52 -26 59 -33 20 -18 51 -37
71 -43 27 -10 20 -27 -8 -20 -15 4 -25 2 -25 -4 0 -7 -15 -10 -37 -8 -33 3
-39 7 -44 33 -4 17 -7 22 -8 12 -1 -25 -54 -19 -59 6 -3 15 0 18 17 12 12 -4
21 -2 21 4 0 6 -4 11 -10 11 -10 0 -50 36 -50 45 0 10 29 4 73 -15z m-63 -25
c0 -8 -2 -15 -4 -15 -2 0 -6 7 -10 15 -3 8 -1 15 4 15 6 0 10 -7 10 -15z
m-470 -1120 c11 -13 10 -14 -4 -9 -12 5 -15 2 -10 -10 4 -11 1 -16 -10 -16
-18 0 -22 15 -6 25 6 4 8 11 5 16 -10 15 12 10 25 -6z m-60 -5 c0 -5 -4 -10
-10 -10 -5 0 -10 5 -10 10 0 6 5 10 10 10 6 0 10 -4 10 -10z m25 -80 c3 -5 1
-10 -4 -10 -6 0 -11 5 -11 10 0 6 2 10 4 10 3 0 8 -4 11 -10z"/>
<path d="M3110 3029 c0 -5 5 -7 10 -4 6 3 10 8 10 11 0 2 -4 4 -10 4 -5 0 -10
-5 -10 -11z"/>
<path d="M2150 1470 c-9 -6 -10 -10 -3 -10 6 0 15 5 18 10 8 12 4 12 -15 0z"/>
<path d="M1390 4125 c-11 -13 -10 -14 4 -9 9 3 16 10 16 15 0 13 -6 11 -20 -6z"/>
<path d="M1870 4110 c0 -5 7 -10 16 -10 8 0 12 5 9 10 -3 6 -10 10 -16 10 -5
0 -9 -4 -9 -10z"/>
<path d="M2235 4110 c-3 -5 -1 -10 4 -10 6 0 11 5 11 10 0 6 -2 10 -4 10 -3 0
-8 -4 -11 -10z"/>
<path d="M2268 4113 c7 -3 16 -2 19 1 4 3 -2 6 -13 5 -11 0 -14 -3 -6 -6z"/>
<path d="M1917 4089 c7 -7 15 -10 18 -7 3 3 -2 9 -12 12 -14 6 -15 5 -6 -5z"/>
<path d="M1950 4089 c0 -5 5 -7 10 -4 6 3 10 8 10 11 0 2 -4 4 -10 4 -5 0 -10
-5 -10 -11z"/>
<path d="M1305 4080 c-3 -5 -1 -10 4 -10 6 0 11 5 11 10 0 6 -2 10 -4 10 -3 0
-8 -4 -11 -10z"/>
<path d="M2200 4071 c0 -12 -6 -21 -15 -21 -8 0 -15 5 -15 11 0 5 -4 7 -10 4
-5 -3 -10 -13 -10 -22 0 -13 9 -15 45 -11 24 3 43 3 41 -1 -2 -3 9 -6 26 -6
24 0 27 2 12 10 -9 6 -30 21 -45 33 -29 23 -29 23 -29 3z"/>
<path d="M2600 4070 c0 -5 7 -10 15 -10 8 0 15 5 15 10 0 6 -7 10 -15 10 -8 0
-15 -4 -15 -10z"/>
<path d="M2350 4047 c0 -8 7 -18 16 -21 24 -9 54 -7 54 4 0 9 -15 14 -34 11
-4 -1 -14 4 -22 10 -11 9 -14 8 -14 -4z"/>
<path d="M2522 4048 c5 -15 28 -23 28 -10 0 5 -7 13 -16 16 -10 4 -14 1 -12
-6z"/>
<path d="M2310 4036 c0 -2 7 -7 16 -10 8 -3 12 -2 9 4 -6 10 -25 14 -25 6z"/>
<path d="M1215 4019 c-11 -17 1 -21 15 -4 8 9 8 15 2 15 -6 0 -14 -5 -17 -11z"/>
<path d="M2430 4021 c0 -9 52 -22 59 -15 6 6 -1 11 -31 18 -16 3 -28 2 -28 -3z"/>
<path d="M1865 4000 c-3 -5 -2 -10 4 -10 5 0 13 5 16 10 3 6 2 10 -4 10 -5 0
-13 -4 -16 -10z"/>
<path d="M2505 4000 c3 -5 13 -10 21 -10 8 0 14 5 14 10 0 6 -9 10 -21 10 -11
0 -17 -4 -14 -10z"/>
<path d="M1079 3883 c-43 -52 -44 -55 -16 -42 15 7 29 21 33 31 8 27 0 32 -17
11z"/>
<path d="M986 3781 c-4 -5 -2 -12 3 -15 5 -4 12 -2 15 3 4 5 2 12 -3 15 -5 4
-12 2 -15 -3z"/>
<path d="M960 3741 c0 -14 5 -19 15 -14 17 6 15 25 -3 31 -7 2 -12 -5 -12 -17z"/>
<path d="M925 3676 c-13 -31 -14 -41 -4 -47 19 -11 32 1 18 17 -9 11 -9 17 1
29 6 8 10 20 7 27 -3 7 -12 -5 -22 -26z"/>
<path d="M2860 3680 c0 -5 4 -10 9 -10 6 0 13 5 16 10 3 6 -1 10 -9 10 -9 0
-16 -4 -16 -10z"/>
<path d="M2810 3670 c-9 -6 -10 -10 -3 -10 6 0 15 5 18 10 8 12 4 12 -15 0z"/>
<path d="M880 3590 c0 -5 5 -10 11 -10 5 0 7 5 4 10 -3 6 -8 10 -11 10 -2 0
-4 -4 -4 -10z"/>
<path d="M865 3550 c3 -5 8 -10 11 -10 2 0 4 5 4 10 0 6 -5 10 -11 10 -5 0 -7
-4 -4 -10z"/>
<path d="M823 3484 c-20 -41 -24 -59 -15 -62 17 -5 15 -32 -3 -32 -8 0 -15 -4
-15 -9 0 -5 -3 -17 -6 -25 -5 -12 -2 -15 10 -10 9 3 16 12 16 19 0 7 4 15 10
17 5 2 11 20 13 40 2 21 9 44 16 51 6 8 8 17 4 20 -3 4 0 13 6 21 8 9 8 16 2
20 -6 4 -23 -19 -38 -50z"/>
<path d="M1520 3336 c0 -2 7 -7 16 -10 8 -3 12 -2 9 4 -6 10 -25 14 -25 6z"/>
<path d="M750 3300 c-11 -11 -20 -27 -20 -35 0 -8 -3 -15 -7 -15 -5 0 -8 -15
-9 -32 -3 -84 -6 -115 -16 -141 -8 -20 -7 -31 3 -43 8 -10 19 -29 25 -43 l11
-26 8 28 c4 15 13 27 20 27 7 0 15 9 18 20 3 13 0 20 -10 20 -8 0 -11 5 -8 11
4 6 13 8 21 5 7 -3 25 1 40 8 l26 14 -36 -1 c-25 -1 -43 6 -58 21 -21 20 -21
22 -4 22 14 0 16 3 7 14 -8 10 -8 16 2 25 16 13 11 61 -7 61 -7 0 -7 3 -1 8
14 10 35 72 24 72 -5 0 -18 -9 -29 -20z"/>
<path d="M1518 3312 c13 -9 6 -42 -12 -54 -6 -4 -7 -10 -3 -14 11 -11 37 28
34 50 -1 11 -9 21 -17 23 -11 4 -12 2 -2 -5z"/>
<path d="M1400 2995 c-10 -12 -10 -15 3 -15 19 0 31 16 18 24 -5 3 -14 -1 -21
-9z"/>
<path d="M1900 2980 c0 -4 -14 -10 -32 -14 -29 -6 -95 -62 -85 -72 2 -3 10 2
17 11 7 8 20 15 29 15 14 0 14 -2 1 -10 -13 -8 -13 -10 2 -10 9 0 19 4 22 9 3
5 36 3 73 -5 38 -7 94 -19 125 -25 66 -13 67 -23 6 -33 -24 -4 -92 -23 -153
-42 -60 -20 -120 -36 -133 -36 -33 -1 -9 -25 36 -38 28 -7 40 -6 52 5 20 19
116 17 132 -2 13 -16 69 -17 122 -2 21 6 50 7 65 3 l26 -7 -30 -7 c-16 -4 -42
-11 -57 -14 -41 -9 -34 -23 9 -18 30 4 35 2 30 -12 -4 -9 -2 -16 3 -16 17 0
11 -26 -10 -45 -25 -23 -19 -31 11 -14 49 26 89 84 89 129 0 19 5 30 14 30 24
0 29 20 10 35 -18 14 -17 16 13 40 17 14 36 39 42 56 8 25 8 29 -2 21 -20 -15
-61 -22 -77 -12 -8 5 -11 10 -6 10 5 0 3 7 -5 16 -8 9 -21 13 -35 10 -13 -4
-40 0 -61 8 -41 15 -112 31 -127 27 -5 -1 -16 1 -25 5 -24 10 -91 13 -91 4z
m220 -220 c0 -5 -4 -10 -10 -10 -5 0 -10 5 -10 10 0 6 5 10 10 10 6 0 10 -4
10 -10z"/>
<path d="M968 2943 c7 -3 16 -2 19 1 4 3 -2 6 -13 5 -11 0 -14 -3 -6 -6z"/>
<path d="M770 2926 c0 -2 7 -7 16 -10 8 -3 12 -2 9 4 -6 10 -25 14 -25 6z"/>
<path d="M1197 2923 c-11 -17 3 -63 18 -63 8 0 17 5 21 12 5 7 2 9 -9 5 -12
-5 -17 1 -19 26 -2 20 -6 27 -11 20z"/>
<path d="M1270 2910 c0 -5 5 -10 11 -10 5 0 7 5 4 10 -3 6 -8 10 -11 10 -2 0
-4 -4 -4 -10z"/>
<path d="M930 2890 c-6 -11 -17 -20 -25 -20 -8 0 -15 -4 -15 -10 0 -12 20 -13
36 -2 12 7 29 52 20 52 -3 0 -10 -9 -16 -20z"/>
<path d="M1168 2829 c-15 -15 -15 -19 -3 -19 8 0 19 9 25 20 13 25 1 25 -22
-1z"/>
<path d="M1075 2810 c-19 -8 -19 -9 3 -9 12 -1 22 4 22 9 0 6 -1 10 -2 9 -2 0
-12 -4 -23 -9z"/>
<path d="M1270 2769 c0 -5 5 -7 10 -4 6 3 10 8 10 11 0 2 -4 4 -10 4 -5 0 -10
-5 -10 -11z"/>
<path d="M2135 2640 c-3 -5 -1 -10 4 -10 6 0 11 5 11 10 0 6 -2 10 -4 10 -3 0
-8 -4 -11 -10z"/>
<path d="M1386 2585 c-6 -16 3 -19 28 -9 22 8 20 24 -3 24 -10 0 -21 -7 -25
-15z"/>
<path d="M2090 2590 c-12 -8 -10 -10 8 -10 13 0 20 4 17 10 -7 12 -6 12 -25 0z"/>
<path d="M857 2561 c4 -17 10 -20 27 -15 38 12 37 18 -6 29 -24 6 -26 4 -21
-14z"/>
<path d="M1340 2561 c-17 -11 -14 -16 17 -25 12 -4 24 -2 27 3 4 6 14 7 24 4
12 -4 14 -3 7 5 -15 16 -58 23 -75 13z"/>
<path d="M1166 2524 c-8 -21 -8 -24 3 -24 5 0 11 9 14 20 6 24 -8 27 -17 4z"/>
<path d="M1160 2465 c15 -16 27 -22 33 -16 11 11 0 34 -13 26 -5 -3 -11 -1
-15 5 -3 5 -11 10 -17 10 -6 0 -1 -11 12 -25z"/>
<path d="M1080 2461 c0 -15 25 -30 47 -28 12 0 20 5 17 9 -3 4 -11 5 -19 1 -9
-3 -15 1 -15 11 0 9 -7 16 -15 16 -8 0 -15 -4 -15 -9z"/>
<path d="M1670 2380 c0 -5 5 -10 10 -10 6 0 10 5 10 10 0 6 -4 10 -10 10 -5 0
-10 -4 -10 -10z"/>
<path d="M1674 2329 c-5 -9 -2 -10 9 -6 9 3 18 0 20 -9 4 -10 5 -9 3 2 -1 21
-22 29 -32 13z"/>
<path d="M1746 2271 c-4 -7 -5 -15 -2 -18 9 -9 19 4 14 18 -4 11 -6 11 -12 0z"/>
<path d="M1760 2225 c0 -8 7 -15 15 -15 9 0 12 6 9 15 -4 8 -10 15 -15 15 -5
0 -9 -7 -9 -15z"/>
<path d="M2380 2170 c0 -5 5 -10 10 -10 6 0 10 5 10 10 0 6 -4 10 -10 10 -5 0
-10 -4 -10 -10z"/>
<path d="M2168 2126 c-19 -14 -23 -26 -10 -26 4 0 18 9 32 20 16 13 20 20 10
19 -8 0 -23 -6 -32 -13z"/>
<path d="M1995 2119 c-4 -6 0 -18 9 -27 15 -15 16 -15 16 5 0 25 -15 38 -25
22z"/>
<path d="M1767 2106 c-4 -10 -5 -21 -2 -24 9 -9 17 6 13 25 -3 17 -4 17 -11
-1z"/>
<path d="M1800 1901 c0 -6 5 -13 10 -16 6 -3 10 1 10 9 0 9 -4 16 -10 16 -5 0
-10 -4 -10 -9z"/>
<path d="M1870 1830 c0 -5 9 -10 20 -10 11 0 20 5 20 10 0 6 -9 10 -20 10 -11
0 -20 -4 -20 -10z"/>
</g>
</svg>
